<svg width="83" height="17" viewBox="0 0 83 17" fill="none" xmlns="http://www.w3.org/2000/svg">
<path d="M0.754 13.013V3.731H3.614V13.013H0.754ZM19.4574 3.731H16.5974V10.127C16.6668 10.3697 16.7361 10.608 16.8054 10.842C16.8054 10.9287 16.8098 11.0153 16.8184 11.102C16.7578 11.102 16.6971 11.0457 16.6364 10.933C16.5844 10.8203 16.5324 10.7077 16.4804 10.595L11.5924 3.731H6.91245V13.013H9.77245V6.604C9.77245 6.59533 9.69878 6.357 9.55145 5.889C9.54278 5.80233 9.53845 5.71567 9.53845 5.629C9.59911 5.629 9.65545 5.68967 9.70745 5.811C9.76811 5.92367 9.82445 6.032 9.87645 6.136L14.7774 13.013H19.4574V3.731Z" fill="#7041FF"/>
<path d="M56.705 3.718H53.481L58.174 13H62.516L67.209 3.718H63.985L60.475 10.556H60.345H60.215L56.705 3.718ZM69.552 3.705H77.872C78.8947 3.705 79.6184 3.89133 80.043 4.264C80.5024 4.67133 80.732 5.38633 80.732 6.409C80.732 7.20633 80.6367 7.79567 80.446 8.177C80.2554 8.55833 79.9217 8.84433 79.445 9.035C79.965 9.26033 80.3074 9.48567 80.472 9.711C80.6454 9.93633 80.732 10.3393 80.732 10.92V13H77.872V11.336C77.872 11.0933 77.807 10.8897 77.677 10.725C77.5124 10.5083 77.2654 10.4 76.936 10.4H72.412V13H69.552V3.705ZM72.412 6.11V7.995H77.001C77.313 7.995 77.534 7.93 77.664 7.8C77.8027 7.66133 77.872 7.41433 77.872 7.059C77.872 6.70367 77.8027 6.45667 77.664 6.318C77.5254 6.17933 77.3044 6.11 77.001 6.11H72.412Z" fill="#7041FF"/>
<mask id="path-3-outside-1" maskUnits="userSpaceOnUse" x="26" y="0" width="22" height="17" fill="black">
<rect fill="white" x="26" width="22" height="17"/>
<path d="M45.8653 5.53333L46.048 4.892L45.8653 5.532V5.53333ZM40.8933 14.8027L41.4773 14.484L40.892 14.804L40.8933 14.8027ZM29.7133 4.752C29.6518 4.9152 29.6567 5.09601 29.727 5.25565C29.7972 5.41529 29.9272 5.54104 30.0891 5.60594C30.251 5.67083 30.4319 5.6697 30.5929 5.60279C30.754 5.53587 30.8824 5.4085 30.9507 5.248L29.7133 4.752ZM43.0467 5.248C43.078 5.33101 43.1255 5.40695 43.1865 5.47135C43.2475 5.53575 43.3208 5.58733 43.402 5.62306C43.4832 5.65879 43.5707 5.67796 43.6594 5.67944C43.7481 5.68091 43.8362 5.66467 43.9185 5.63166C44.0009 5.59865 44.0758 5.54954 44.1389 5.48721C44.2021 5.42487 44.2521 5.35056 44.2861 5.26863C44.3202 5.18671 44.3375 5.09881 44.3372 5.0101C44.3368 4.92139 44.3187 4.83364 44.284 4.752L43.0467 5.248ZM45.6653 6.15467V10.6133H46.9987V6.15333H45.6653V6.15467ZM41.9467 14.3333H41.224V15.6667H41.9467V14.3333ZM32.776 14.3333H32.0533V15.6667H32.776V14.3333ZM28.3333 10.6133V6.15333H27V10.6133H28.3333ZM28.3173 6.17333C33.9922 4.55186 40.0078 4.55186 45.6827 6.17333L46.048 4.892C40.1343 3.20249 33.8657 3.20249 27.952 4.892L28.3173 6.17333ZM32.0533 14.3333C31.0667 14.3333 30.1205 13.9414 29.4229 13.2438C28.7253 12.5461 28.3333 11.5999 28.3333 10.6133H27C27 11.9536 27.5324 13.2389 28.4801 14.1866C29.4278 15.1343 30.7131 15.6667 32.0533 15.6667V14.3333ZM32.5227 14.484C32.5475 14.4385 32.5841 14.4005 32.6287 14.374C32.6733 14.3475 32.7241 14.3334 32.776 14.3333V15.6667C33.1587 15.6667 33.5093 15.4587 33.692 15.1227L32.5227 14.484ZM33.692 15.1227C35.12 12.5053 38.8787 12.5053 40.308 15.1227L41.4773 14.484C39.544 10.94 34.4547 10.94 32.5227 14.484L33.692 15.1227ZM41.224 14.3333C41.3307 14.3333 41.4267 14.3907 41.4773 14.484L40.308 15.1227C40.4907 15.4587 40.8413 15.6667 41.224 15.6667V14.3333ZM45.6667 10.6133C45.6667 11.5999 45.2747 12.5461 44.5771 13.2438C43.8795 13.9414 42.9333 14.3333 41.9467 14.3333V15.6667C43.2869 15.6667 44.5722 15.1343 45.5199 14.1866C46.4676 13.2389 47 11.9536 47 10.6133H45.6667ZM47 6.15333C46.9999 5.8682 46.907 5.59085 46.7352 5.36326C46.5634 5.13567 46.3222 4.97024 46.048 4.892L45.6827 6.17333C45.6782 6.17218 45.6742 6.16961 45.6713 6.166C45.6684 6.1624 45.6668 6.15795 45.6667 6.15333H47ZM28.3333 6.15333C28.3332 6.15795 28.3316 6.1624 28.3287 6.166C28.3258 6.16961 28.3218 6.17218 28.3173 6.17333L27.952 4.89333C27.678 4.97151 27.4369 5.13674 27.2652 5.36406C27.0934 5.59138 27.0004 5.86843 27 6.15333H28.3333ZM30.3773 3.096L29.7147 4.752L30.952 5.248L31.6147 3.59067L30.3773 3.096ZM42.3853 3.58933L43.048 5.248L44.2853 4.752L43.6227 3.096L42.3853 3.58933ZM33.472 2.33333H40.528V1H33.472V2.33333ZM43.6227 3.096C43.3754 2.47737 42.9484 1.94705 42.3967 1.57344C41.8451 1.19984 41.1942 1.0001 40.528 1V2.33333C40.9278 2.33327 41.3184 2.45302 41.6495 2.67714C41.9806 2.90126 42.2369 3.21946 42.3853 3.59067L43.6227 3.096ZM31.6147 3.58933C31.7633 3.21837 32.0197 2.90046 32.3508 2.67659C32.6818 2.45272 33.0724 2.33316 33.472 2.33333V1C32.8058 1.0001 32.1549 1.19984 31.6033 1.57344C31.0516 1.94705 30.6246 2.47737 30.3773 3.096L31.6147 3.58933Z"/>
</mask>
<path d="M45.8653 5.53333L46.048 4.892L45.8653 5.532V5.53333ZM40.8933 14.8027L41.4773 14.484L40.892 14.804L40.8933 14.8027ZM29.7133 4.752C29.6518 4.9152 29.6567 5.09601 29.727 5.25565C29.7972 5.41529 29.9272 5.54104 30.0891 5.60594C30.251 5.67083 30.4319 5.6697 30.5929 5.60279C30.754 5.53587 30.8824 5.4085 30.9507 5.248L29.7133 4.752ZM43.0467 5.248C43.078 5.33101 43.1255 5.40695 43.1865 5.47135C43.2475 5.53575 43.3208 5.58733 43.402 5.62306C43.4832 5.65879 43.5707 5.67796 43.6594 5.67944C43.7481 5.68091 43.8362 5.66467 43.9185 5.63166C44.0009 5.59865 44.0758 5.54954 44.1389 5.48721C44.2021 5.42487 44.2521 5.35056 44.2861 5.26863C44.3202 5.18671 44.3375 5.09881 44.3372 5.0101C44.3368 4.92139 44.3187 4.83364 44.284 4.752L43.0467 5.248ZM45.6653 6.15467V10.6133H46.9987V6.15333H45.6653V6.15467ZM41.9467 14.3333H41.224V15.6667H41.9467V14.3333ZM32.776 14.3333H32.0533V15.6667H32.776V14.3333ZM28.3333 10.6133V6.15333H27V10.6133H28.3333ZM28.3173 6.17333C33.9922 4.55186 40.0078 4.55186 45.6827 6.17333L46.048 4.892C40.1343 3.20249 33.8657 3.20249 27.952 4.892L28.3173 6.17333ZM32.0533 14.3333C31.0667 14.3333 30.1205 13.9414 29.4229 13.2438C28.7253 12.5461 28.3333 11.5999 28.3333 10.6133H27C27 11.9536 27.5324 13.2389 28.4801 14.1866C29.4278 15.1343 30.7131 15.6667 32.0533 15.6667V14.3333ZM32.5227 14.484C32.5475 14.4385 32.5841 14.4005 32.6287 14.374C32.6733 14.3475 32.7241 14.3334 32.776 14.3333V15.6667C33.1587 15.6667 33.5093 15.4587 33.692 15.1227L32.5227 14.484ZM33.692 15.1227C35.12 12.5053 38.8787 12.5053 40.308 15.1227L41.4773 14.484C39.544 10.94 34.4547 10.94 32.5227 14.484L33.692 15.1227ZM41.224 14.3333C41.3307 14.3333 41.4267 14.3907 41.4773 14.484L40.308 15.1227C40.4907 15.4587 40.8413 15.6667 41.224 15.6667V14.3333ZM45.6667 10.6133C45.6667 11.5999 45.2747 12.5461 44.5771 13.2438C43.8795 13.9414 42.9333 14.3333 41.9467 14.3333V15.6667C43.2869 15.6667 44.5722 15.1343 45.5199 14.1866C46.4676 13.2389 47 11.9536 47 10.6133H45.6667ZM47 6.15333C46.9999 5.8682 46.907 5.59085 46.7352 5.36326C46.5634 5.13567 46.3222 4.97024 46.048 4.892L45.6827 6.17333C45.6782 6.17218 45.6742 6.16961 45.6713 6.166C45.6684 6.1624 45.6668 6.15795 45.6667 6.15333H47ZM28.3333 6.15333C28.3332 6.15795 28.3316 6.1624 28.3287 6.166C28.3258 6.16961 28.3218 6.17218 28.3173 6.17333L27.952 4.89333C27.678 4.97151 27.4369 5.13674 27.2652 5.36406C27.0934 5.59138 27.0004 5.86843 27 6.15333H28.3333ZM30.3773 3.096L29.7147 4.752L30.952 5.248L31.6147 3.59067L30.3773 3.096ZM42.3853 3.58933L43.048 5.248L44.2853 4.752L43.6227 3.096L42.3853 3.58933ZM33.472 2.33333H40.528V1H33.472V2.33333ZM43.6227 3.096C43.3754 2.47737 42.9484 1.94705 42.3967 1.57344C41.8451 1.19984 41.1942 1.0001 40.528 1V2.33333C40.9278 2.33327 41.3184 2.45302 41.6495 2.67714C41.9806 2.90126 42.2369 3.21946 42.3853 3.59067L43.6227 3.096ZM31.6147 3.58933C31.7633 3.21837 32.0197 2.90046 32.3508 2.67659C32.6818 2.45272 33.0724 2.33316 33.472 2.33333V1C32.8058 1.0001 32.1549 1.19984 31.6033 1.57344C31.0516 1.94705 30.6246 2.47737 30.3773 3.096L31.6147 3.58933Z" fill="#7041FF"/>
<path d="M27.9423 5.58822L28.125 6.22822L28.5097 6.11844L28.327 5.47844L27.9423 5.58822ZM33.0109 14.9782L33.5976 15.2982L33.7891 14.9471L33.2024 14.6271L33.0109 14.9782ZM31.0687 3.15689L30.4501 2.91022L30.3019 3.28178L30.9206 3.52844L31.0687 3.15689ZM43.0767 3.52844L43.6954 3.28178L43.5473 2.91022L42.9286 3.15689L43.0767 3.52844ZM41.024 14.3333V15.6667H41.424V14.3333H41.024ZM42.1467 15.6667V14.3333H41.7467V15.6667H42.1467ZM31.8533 14.3333V15.6667H32.2533V14.3333H31.8533ZM32.976 15.6667V14.3333H32.576V15.6667H32.976ZM28.3333 5.95333H27V6.35333H28.3333V5.95333ZM27 10.8133H28.3333V10.4133H27V10.8133ZM45.875 6.22817L46.2403 4.94684L45.8557 4.83716L45.4903 6.11849L45.875 6.22817ZM33.7879 14.9471L32.6185 14.3085L32.4268 14.6595L33.5961 15.2982L33.7879 14.9471ZM40.4039 15.2982L41.5732 14.6595L41.3815 14.3085L40.2121 14.9471L40.4039 15.2982ZM40.728 2.33333V1H40.328V2.33333H40.728ZM33.272 1V2.33333H33.672V1H33.272ZM28.3173 6.17333L27.9327 6.28312L28.0397 6.65794L28.4171 6.56068L28.3173 6.17333ZM45.8653 5.53333H45.4653L46.25 5.6429L45.8653 5.53333ZM45.8653 5.532L45.4807 5.42222L45.4653 5.47603V5.532H45.8653ZM40.8933 14.8027L40.7017 14.4515L40.6512 14.4791L40.6105 14.5198L40.8933 14.8027ZM41.4773 14.484L41.6692 14.835L42.0191 14.6437L41.8289 14.2932L41.4773 14.484ZM40.892 14.804L40.6092 14.5212L41.0839 15.155L40.892 14.804ZM29.7133 4.752L29.8622 4.38072L29.4831 4.22876L29.339 4.61092L29.7133 4.752ZM30.9507 5.248L31.3188 5.40452L31.4786 5.02868L31.0995 4.87672L30.9507 5.248ZM43.0467 5.248L42.8978 4.87672L42.5342 5.02249L42.6724 5.38908L43.0467 5.248ZM44.284 4.752L44.6521 4.59548L44.4988 4.23495L44.1352 4.38072L44.284 4.752ZM45.6653 10.6133H45.2653V11.0133H45.6653V10.6133ZM46.9987 10.6133V11.0133H47.3987V10.6133H46.9987ZM46.9987 6.15333H47.3987V5.75333H46.9987V6.15333ZM45.6653 6.15333V5.75333H45.2653V6.15333H45.6653ZM41.9467 15.6667V16.0667V15.6667ZM32.776 14.3333L32.7768 14.7333L32.776 13.9333V14.3333ZM32.0533 14.3333V14.7333V14.3333ZM28.3333 10.6133H27.9333H28.3333ZM28.3333 6.15333H28.7333L27.9335 6.14099L28.3333 6.15333ZM27 6.15333L26.6 6.15283V6.15333H27ZM27 10.6133H26.6H27ZM45.6827 6.17333L45.5829 6.56068L45.7926 5.78872L45.6827 6.17333ZM27.952 4.892L27.8421 4.50739L27.4577 4.61721L27.5673 5.00168L27.952 4.892ZM32.5227 14.484L32.1715 14.2925L32.8737 14.6757L32.5227 14.484ZM33.692 15.1227L33.3409 14.9311L33.3406 14.9316L33.692 15.1227ZM40.308 15.1227L40.6594 14.9316L40.6591 14.931L40.308 15.1227ZM45.6667 10.6133V10.2133H45.2667V10.6133H45.6667ZM47 10.6133H47.4V10.2133H47V10.6133ZM47 6.15333V6.55333H47.4001L47.4 6.15324L47 6.15333ZM45.6667 6.15333V5.75333H45.2541L45.2669 6.16568L45.6667 6.15333ZM27.952 4.89333L28.3366 4.78355L28.2269 4.39894L27.8422 4.50869L27.952 4.89333ZM29.7147 4.752L29.3433 4.60339L29.1948 4.97454L29.5658 5.12328L29.7147 4.752ZM30.952 5.248L30.8032 5.61928L31.1748 5.76824L31.3234 5.3965L30.952 5.248ZM31.6147 3.59067L31.9861 3.73917L32.1346 3.36774L31.7632 3.21925L31.6147 3.59067ZM42.3853 3.58933L42.2372 3.21778L41.8654 3.36602L42.0139 3.73774L42.3853 3.58933ZM43.048 5.248L42.6765 5.3964L42.8251 5.76828L43.1968 5.61928L43.048 5.248ZM44.2853 4.752L44.4342 5.12328L44.8052 4.97454L44.6567 4.60339L44.2853 4.752ZM33.472 2.33333L33.4718 2.73333H33.472V2.33333ZM40.528 2.33333V2.73333H40.5281L40.528 2.33333ZM40.528 1L40.5281 0.6H40.528V1ZM33.472 1V0.6H33.4719L33.472 1ZM42.3853 3.59067L42.0139 3.7392L42.1624 4.11055L42.5338 3.96209L42.3853 3.59067ZM31.6147 3.58933L31.4665 3.96089L31.8374 4.10877L31.986 3.73813L31.6147 3.58933ZM46.25 5.6429L46.4327 5.00157L45.6633 4.78243L45.4806 5.42376L46.25 5.6429ZM45.6634 4.78222L45.4807 5.42222L46.25 5.64178L46.4326 5.00178L45.6634 4.78222ZM45.4653 5.532V5.53333H46.2653V5.532H45.4653ZM41.0849 15.1538L41.6689 14.8351L41.2857 14.1329L40.7017 14.4515L41.0849 15.1538ZM41.2855 14.133L40.7001 14.453L41.0839 15.155L41.6692 14.835L41.2855 14.133ZM41.1748 15.0868L41.1762 15.0855L40.6105 14.5198L40.6092 14.5212L41.1748 15.0868ZM29.339 4.61092C29.2406 4.87204 29.2484 5.16134 29.3608 5.41676L30.0931 5.09454C30.065 5.03069 30.063 4.95836 30.0876 4.89308L29.339 4.61092ZM29.3608 5.41676C29.4732 5.67218 29.6812 5.87339 29.9403 5.97722L30.2379 5.23466C30.1732 5.2087 30.1212 5.1584 30.0931 5.09454L29.3608 5.41676ZM29.9403 5.97722C30.1993 6.08105 30.4887 6.07924 30.7464 5.97218L30.4395 5.2334C30.375 5.26016 30.3027 5.26062 30.2379 5.23466L29.9403 5.97722ZM30.7464 5.97218C31.0041 5.86511 31.2096 5.66132 31.3188 5.40452L30.5826 5.09148C30.5553 5.15568 30.5039 5.20663 30.4395 5.2334L30.7464 5.97218ZM31.0995 4.87672L29.8622 4.38072L29.5645 5.12328L30.8018 5.61928L31.0995 4.87672ZM42.6724 5.38908C42.7224 5.5219 42.7985 5.64339 42.8961 5.74644L43.4769 5.19626C43.4525 5.1705 43.4335 5.14012 43.421 5.10692L42.6724 5.38908ZM42.8961 5.74644C42.9937 5.84949 43.1109 5.93201 43.2409 5.98918L43.5631 5.25694C43.5306 5.24265 43.5013 5.22202 43.4769 5.19626L42.8961 5.74644ZM43.2409 5.98918C43.3708 6.04635 43.5108 6.07702 43.6527 6.07938L43.666 5.27949C43.6306 5.2789 43.5956 5.27123 43.5631 5.25694L43.2409 5.98918ZM43.6527 6.07938C43.7947 6.08174 43.9356 6.05576 44.0674 6.00294L43.7697 5.26038C43.7368 5.27358 43.7015 5.28008 43.666 5.27949L43.6527 6.07938ZM44.0674 6.00294C44.1991 5.95013 44.319 5.87155 44.42 5.77181L43.8579 5.2026C43.8326 5.22753 43.8027 5.24718 43.7697 5.26038L44.0674 6.00294ZM44.42 5.77181C44.521 5.67207 44.6011 5.55318 44.6555 5.4221L43.9167 5.11517C43.9031 5.14794 43.8831 5.17766 43.8579 5.2026L44.42 5.77181ZM44.6555 5.4221C44.71 5.29102 44.7377 5.15038 44.7371 5.00845L43.9372 5.01176C43.9373 5.04725 43.9304 5.0824 43.9167 5.11517L44.6555 5.4221ZM44.7371 5.00845C44.7366 4.8665 44.7076 4.72611 44.6521 4.59548L43.9159 4.90852C43.9298 4.94117 43.937 4.97627 43.9372 5.01176L44.7371 5.00845ZM44.1352 4.38072L42.8978 4.87672L43.1955 5.61928L44.4328 5.12328L44.1352 4.38072ZM45.2653 6.15467V10.6133H46.0653V6.15467H45.2653ZM45.6653 11.0133H46.9987V10.2133H45.6653V11.0133ZM47.3987 10.6133V6.15333H46.5987V10.6133H47.3987ZM46.9987 5.75333H45.6653V6.55333H46.9987V5.75333ZM45.2653 6.15333V6.15467H46.0653V6.15333H45.2653ZM41.9467 13.9333H41.224V14.7333H41.9467V13.9333ZM41.224 16.0667H41.9467V15.2667H41.224V16.0667ZM32.776 13.9333H32.0533V14.7333H32.776V13.9333ZM32.0533 16.0667H32.776V15.2667H32.0533V16.0667ZM28.7333 10.6133V6.15333H27.9333V10.6133H28.7333ZM26.6 6.15333V10.6133H27.4V6.15333H26.6ZM28.4272 6.55794C34.0303 4.95699 39.9697 4.95699 45.5728 6.55794L45.7926 5.78872C40.0458 4.14673 33.9542 4.14673 28.2074 5.78872L28.4272 6.55794ZM46.1579 4.50739C40.1724 2.79736 33.8276 2.79736 27.8421 4.50739L28.0619 5.27661C33.9038 3.60762 40.0962 3.60762 45.9381 5.27661L46.1579 4.50739ZM27.5673 5.00168L27.9327 6.28301L28.702 6.06366L28.3367 4.78232L27.5673 5.00168ZM32.0533 13.9333C31.1728 13.9333 30.3284 13.5835 29.7057 12.9609L29.1401 13.5266C29.9127 14.2993 30.9606 14.7333 32.0533 14.7333V13.9333ZM29.7057 12.9609C29.0831 12.3383 28.7333 11.4939 28.7333 10.6133H27.9333C27.9333 11.706 28.3674 12.754 29.1401 13.5266L29.7057 12.9609ZM26.6 10.6133C26.6 12.0596 27.1745 13.4467 28.1972 14.4694L28.7629 13.9037C27.8903 13.0311 27.4 11.8475 27.4 10.6133H26.6ZM28.1972 14.4694C29.2199 15.4921 30.607 16.0667 32.0533 16.0667V15.2667C30.8192 15.2667 29.6356 14.7764 28.7629 13.9037L28.1972 14.4694ZM32.8737 14.6757C32.8642 14.6931 32.8502 14.7076 32.8332 14.7178L32.4242 14.0302C32.3181 14.0933 32.2308 14.1839 32.1716 14.2923L32.8737 14.6757ZM32.8332 14.7178C32.8161 14.7279 32.7967 14.7333 32.7768 14.7333L32.7752 13.9333C32.6516 13.9336 32.5304 13.9671 32.4242 14.0302L32.8332 14.7178ZM32.776 16.0667C33.3048 16.0667 33.7906 15.7789 34.0434 15.3137L33.3406 14.9316C33.2281 15.1385 33.0125 15.2667 32.776 15.2667V16.0667ZM34.0431 15.3142C35.3194 12.9749 38.6792 12.9746 39.9569 15.3144L40.6591 14.931C39.0781 12.036 34.9206 12.0357 33.3409 14.9311L34.0431 15.3142ZM41.8285 14.2924C39.7436 10.4706 34.2551 10.4704 32.1715 14.2925L32.8739 14.6755C34.6542 11.4096 39.3444 11.4094 41.1262 14.6756L41.8285 14.2924ZM41.224 14.7333C41.1838 14.7333 41.145 14.7102 41.1258 14.6748L41.8289 14.2932C41.7083 14.0711 41.4775 13.9333 41.224 13.9333V14.7333ZM39.9566 15.3137C40.2094 15.7789 40.6952 16.0667 41.224 16.0667V15.2667C40.9875 15.2667 40.7719 15.1385 40.6594 14.9316L39.9566 15.3137ZM45.2667 10.6133C45.2667 11.4939 44.9169 12.3383 44.2943 12.9609L44.8599 13.5266C45.6326 12.754 46.0667 11.706 46.0667 10.6133H45.2667ZM44.2943 12.9609C43.6716 13.5835 42.8272 13.9333 41.9467 13.9333V14.7333C43.0394 14.7333 44.0873 14.2993 44.8599 13.5266L44.2943 12.9609ZM41.9467 16.0667C43.393 16.0667 44.7801 15.4921 45.8028 14.4694L45.2371 13.9037C44.3644 14.7764 43.1808 15.2667 41.9467 15.2667V16.0667ZM45.8028 14.4694C46.8255 13.4467 47.4 12.0596 47.4 10.6133H46.6C46.6 11.8475 46.1097 13.0311 45.2371 13.9037L45.8028 14.4694ZM47 10.2133H45.6667V11.0133H47V10.2133ZM47.4 6.15324C47.3999 5.78117 47.2786 5.41926 47.0545 5.12229L46.4159 5.60423C46.5353 5.76243 46.6 5.95522 46.6 6.15343L47.4 6.15324ZM47.0545 5.12229C46.8303 4.82531 46.5155 4.60944 46.1578 4.50735L45.9382 5.27665C46.1288 5.33103 46.2965 5.44603 46.4159 5.60423L47.0545 5.12229ZM45.7825 5.78599C45.8618 5.80644 45.9325 5.85209 45.9837 5.91612L45.359 6.41588C45.416 6.48712 45.4945 6.53792 45.5829 6.56068L45.7825 5.78599ZM45.9837 5.91612C46.0349 5.98012 46.0639 6.05902 46.0665 6.14099L45.2669 6.16568C45.2697 6.25688 45.302 6.34467 45.359 6.41588L45.9837 5.91612ZM45.6667 6.55333H47V5.75333H45.6667V6.55333ZM27.9335 6.14099C27.9361 6.05906 27.9651 5.98015 28.0163 5.91612L28.641 6.41588C28.698 6.34464 28.7303 6.25684 28.7331 6.16568L27.9335 6.14099ZM28.0163 5.91612C28.0675 5.85209 28.1382 5.80644 28.2175 5.78599L28.4171 6.56068C28.5055 6.53793 28.584 6.48712 28.641 6.41588L28.0163 5.91612ZM28.702 6.06355L28.3366 4.78355L27.5674 5.00312L27.9327 6.28312L28.702 6.06355ZM27.8422 4.50869C27.4847 4.6107 27.1702 4.8263 26.9461 5.12293L27.5843 5.60519C27.7037 5.44718 27.8713 5.33232 28.0618 5.27798L27.8422 4.50869ZM26.9461 5.12293C26.7219 5.41955 26.6005 5.78106 26.6 6.15283L27.4 6.15383C27.4002 5.95579 27.465 5.76321 27.5843 5.60519L26.9461 5.12293ZM30.006 2.94739L29.3433 4.60339L30.086 4.90061L30.7487 3.24461L30.006 2.94739ZM29.5658 5.12328L30.8032 5.61928L31.1008 4.87672L29.8635 4.38072L29.5658 5.12328ZM31.3234 5.3965L31.9861 3.73917L31.2433 3.44216L30.5806 5.09949L31.3234 5.3965ZM31.7632 3.21925L30.5258 2.72458L30.2288 3.46742L31.4662 3.96209L31.7632 3.21925ZM42.0139 3.73774L42.6765 5.3964L43.4195 5.0996L42.7568 3.44093L42.0139 3.73774ZM43.1968 5.61928L44.4342 5.12328L44.1365 4.38072L42.8992 4.87672L43.1968 5.61928ZM44.6567 4.60339L43.994 2.94739L43.2513 3.24461L43.914 4.90061L44.6567 4.60339ZM43.4745 2.72444L42.2372 3.21778L42.5335 3.96089L43.7708 3.46756L43.4745 2.72444ZM33.472 2.73333H40.528V1.93333H33.472V2.73333ZM40.528 0.6H33.472V1.4H40.528V0.6ZM43.9941 2.94752C43.7171 2.25466 43.2389 1.66069 42.6211 1.24226L42.1724 1.90463C42.6579 2.2334 43.0336 2.70009 43.2512 3.24448L43.9941 2.94752ZM42.6211 1.24226C42.0033 0.823821 41.2742 0.600114 40.5281 0.6L40.5279 1.4C41.1142 1.40009 41.687 1.57586 42.1724 1.90463L42.6211 1.24226ZM40.5281 2.73333C40.8479 2.73328 41.1604 2.82908 41.4253 3.00838L41.8737 2.3459C41.4765 2.07696 41.0077 1.93325 40.5279 1.93333L40.5281 2.73333ZM41.4253 3.00838C41.6901 3.18767 41.8952 3.44223 42.0139 3.7392L42.7567 3.44213C42.5786 2.99668 42.271 2.61484 41.8737 2.3459L41.4253 3.00838ZM42.5338 3.96209L43.7712 3.46742L43.4742 2.72458L42.2368 3.21925L42.5338 3.96209ZM31.986 3.73813C32.1049 3.44137 32.31 3.18703 32.5748 3.00794L32.1267 2.34524C31.7294 2.61388 31.4218 2.99538 31.2434 3.44053L31.986 3.73813ZM32.5748 3.00794C32.8397 2.82884 33.1521 2.73319 33.4718 2.73333L33.4722 1.93333C32.9926 1.93313 32.524 2.07659 32.1267 2.34524L32.5748 3.00794ZM33.4719 0.6C32.7258 0.600114 31.9967 0.823821 31.3789 1.24226L31.8276 1.90463C32.313 1.57586 32.8858 1.40009 33.4721 1.4L33.4719 0.6ZM31.3789 1.24226C30.7611 1.66069 30.2829 2.25466 30.0059 2.94752L30.7488 3.24448C30.9664 2.70009 31.3421 2.2334 31.8276 1.90463L31.3789 1.24226ZM30.2292 3.46756L31.4665 3.96089L31.7628 3.21778L30.5255 2.72444L30.2292 3.46756Z" fill="#7041FF" mask="url(#path-3-outside-1)"/>
</svg>
