<svg width="23" height="13" viewBox="0 0 23 13" fill="none" xmlns="http://www.w3.org/2000/svg">
<path fill-rule="evenodd" clip-rule="evenodd" d="M11.1045 11.5843H12.3494C12.3494 11.5843 12.7229 11.5259 12.9096 11.3507C13.0964 11.1756 13.0964 10.8252 13.0964 10.8252C13.0964 10.8252 13.0964 9.30698 13.8433 9.07341C14.5903 8.83984 15.5862 10.5916 16.5822 11.2339C17.3292 11.7595 17.8894 11.6427 17.8894 11.6427L20.6283 11.5843C20.6283 11.5843 22.0599 11.5259 21.3752 10.4165C21.313 10.3581 21.0017 9.65734 19.3211 8.19752C17.5781 6.67931 17.8271 6.97127 19.8813 4.34359C21.1262 2.76698 21.6242 1.8327 21.4997 1.36555C21.3752 0.956802 20.4415 1.07359 20.4415 1.07359H17.3292C17.3292 1.07359 17.0802 1.0152 16.9557 1.13198C16.7689 1.24877 16.7067 1.42395 16.7067 1.42395C16.7067 1.42395 16.2087 2.6502 15.5862 3.70127C14.2168 5.8618 13.6566 5.97859 13.4698 5.8618C12.9719 5.56984 13.0964 4.57716 13.0964 3.93484C13.0964 1.8327 13.4698 0.956802 12.4116 0.72323C12.1004 0.664838 11.8514 0.606445 10.98 0.606445C9.85951 0.606445 8.92581 0.606445 8.42783 0.840017C8.05435 1.0152 7.80536 1.36555 7.9921 1.36555C8.17884 1.36555 8.67682 1.48234 8.92581 1.7743C9.1748 2.29984 9.1748 3.17573 9.1748 3.17573C9.1748 3.17573 9.36154 5.68663 8.73907 5.97859C8.30334 6.21216 7.74311 5.74502 6.49817 3.75966C5.8757 2.76698 5.37772 1.59912 5.37772 1.59912C5.37772 1.59912 5.31548 1.36555 5.12873 1.24877C4.94199 1.13198 4.63076 1.07359 4.63076 1.07359H1.70515C1.70515 1.07359 1.26942 1.07359 1.08267 1.24877C0.95818 1.42395 1.08267 1.71591 1.08267 1.71591C1.08267 1.71591 3.38582 6.7377 6.00019 9.30698C8.42783 11.7595 11.1045 11.5843 11.1045 11.5843V11.5843Z" stroke="#FFFFFF"/>
</svg>
