<svg width="24" height="17" viewBox="0 0 24 17" fill="none" xmlns="http://www.w3.org/2000/svg">
<path d="M22.78 4.29985C22.78 4.29985 22.56 2.79339 21.9 2.14777C21.0933 1.28694 20.14 1.28694 19.7 1.21521C16.62 1 12 1 12 1C12 1 7.38 1 4.3 1.21521C3.86 1.28694 2.90667 1.28694 2.1 2.14777C1.44 2.79339 1.22 4.29985 1.22 4.29985C1.22 4.29985 1 6.0215 1 7.74316V9.32135C1 11.043 1.22 12.8364 1.22 12.8364C1.22 12.8364 1.44 14.3429 2.1 14.9885C2.90667 15.8493 4.00667 15.8493 4.52 15.921C6.28 15.9928 12 16.0645 12 16.0645C12 16.0645 16.62 16.0645 19.7 15.8493C20.14 15.7776 21.0933 15.7776 21.9 14.9167C22.56 14.2711 22.78 12.7647 22.78 12.7647C22.78 12.7647 23 11.043 23 9.32135V7.74316C23 6.0215 22.78 4.29985 22.78 4.29985ZM10.3378 10.9952V5.615L15.0556 8.60399L10.3378 10.9952Z" stroke="#FFFFFF"/>
</svg>
